<svg width="29" height="29" viewBox="0 0 29 29" fill="none" xmlns="http://www.w3.org/2000/svg">
<path d="M23.7483 1.12132C24.9198 -0.0502502 26.8199 -0.0502502 27.9914 1.12132C29.1629 2.29281 29.1627 4.19193 27.9914 5.36351L18.7981 14.5559L27.9914 23.7483C29.163 24.9198 29.163 26.8199 27.9914 27.9914C26.8199 29.163 24.9198 29.163 23.7483 27.9914L14.5559 18.7981L5.36351 27.9914C4.19193 29.1627 2.29281 29.1629 1.12132 27.9914C-0.0502502 26.8199 -0.0502502 24.9198 1.12132 23.7483L10.3127 14.5559L1.12132 5.36351C-0.0500253 4.19192 -0.0501742 2.29282 1.12132 1.12132C2.29282 -0.0501753 4.19192 -0.0500257 5.36351 1.12132L14.5559 10.3127L23.7483 1.12132Z" fill="black"/>
</svg>
